<svg width="60" height="64" viewBox="0 0 60 64" fill="none" xmlns="http://www.w3.org/2000/svg">
<path d="M35 5.26318H15C13.6739 5.26318 12.4021 5.81769 11.4645 6.80473C10.5268 7.79176 10 9.13047 10 10.5263V52.6316C10 54.0275 10.5268 55.3662 11.4645 56.3532C12.4021 57.3403 13.6739 57.8948 15 57.8948H45C46.3261 57.8948 47.5979 57.3403 48.5355 56.3532C49.4732 55.3662 50 54.0275 50 52.6316V21.0527M35 5.26318L50 21.0527M35 5.26318V21.0527H50M40 34.2106H20M40 44.7369H20M25 23.6842H20" stroke="white" stroke-width="4" stroke-linecap="round" stroke-linejoin="round"/>
</svg>
